HIERARCHY
ROOT Hips
{
	OFFSET 0 0 0
	CHANNELS 6 Xposition Yposition Zposition Yrotation Xrotation Zrotation
	JOINT Spine
	{
		OFFSET -0 8.38753 -2.67353
		CHANNELS 3 Yrotation Xrotation Zrotation
		JOINT Spine1
		{
			OFFSET -0 8.14501 0
			CHANNELS 3 Yrotation Xrotation Zrotation
			JOINT Spine2
			{
				OFFSET -0 8.14501 0
				CHANNELS 3 Yrotation Xrotation Zrotation
				JOINT Spine3
				{
					OFFSET -0 8.14501 0
					CHANNELS 3 Yrotation Xrotation Zrotation
					JOINT Neck
					{
						OFFSET -0 20.4023 3.67353
						CHANNELS 3 Yrotation Xrotation Zrotation
						JOINT Head
						{
							OFFSET -0 10.4844 0
							CHANNELS 3 Yrotation Xrotation Zrotation
							End Site
							{
								OFFSET 0 15 0
							}
						}
					}
					JOINT LeftShoulder
					{
						OFFSET 1.7474 7.28686 3.4948
						CHANNELS 3 Yrotation Xrotation Zrotation
						JOINT LeftArm
						{
							OFFSET 15.4467 0 0
							CHANNELS 3 Yrotation Xrotation Zrotation
							JOINT LeftForeArm
							{
								OFFSET 24.9712 0 0
								CHANNELS 3 Yrotation Xrotation Zrotation
								JOINT LeftHand
								{
									OFFSET 23.8013 0 0
									CHANNELS 3 Yrotation Xrotation Zrotation
									End Site
									{
										OFFSET 15 0 0
									}
								}
							}
						}
					}
					JOINT RightShoulder
					{
						OFFSET -1.7474 7.28686 3.4948
						CHANNELS 3 Yrotation Xrotation Zrotation
						JOINT RightArm
						{
							OFFSET -15.4467 0 0
							CHANNELS 3 Yrotation Xrotation Zrotation
							JOINT RightForeArm
							{
								OFFSET -24.9712 0 0
								CHANNELS 3 Yrotation Xrotation Zrotation
								JOINT RightHand
								{
									OFFSET -23.8013 0 0
									CHANNELS 3 Yrotation Xrotation Zrotation
									End Site
									{
										OFFSET -15 0 0
									}
								}
							}
						}
					}
				}
			}
		}
	}
	JOINT LeftUpLeg
	{
		OFFSET 10.4844 -3.4948 2
		CHANNELS 3 Yrotation Xrotation Zrotation
		JOINT LeftLeg
		{
			OFFSET -0 -39.9267 2.44636
			CHANNELS 3 Yrotation Xrotation Zrotation
			JOINT LeftFoot
			{
				OFFSET -0 -41.4083 -2.44636
				CHANNELS 3 Yrotation Xrotation Zrotation
				JOINT LeftToeBase
				{
					OFFSET -0 -6.74672 15.7266
					CHANNELS 3 Yrotation Xrotation Zrotation
					End Site
					{
						OFFSET 0 0 5
					}
				}
			}
		}
	}
	JOINT RightUpLeg
	{
		OFFSET -10.4844 -3.4948 2
		CHANNELS 3 Yrotation Xrotation Zrotation
		JOINT RightLeg
		{
			OFFSET -0 -39.9267 2.44636
			CHANNELS 3 Yrotation Xrotation Zrotation
			JOINT RightFoot
			{
				OFFSET -0 -41.4083 -2.44636
				CHANNELS 3 Yrotation Xrotation Zrotation
				JOINT RightToeBase
				{
					OFFSET -0 -6.74672 15.7266
					CHANNELS 3 Yrotation Xrotation Zrotation
					End Site
					{
						OFFSET 0 0 5
					}
				}
			}
		}
	}
}
MOTION
Frames: 5
Frame Time: 0.00833333
-72.453308 90.309937 1.125076 9.743611 9.451665 -2.586340 3.081565 3.029613 -1.319090 2.602198 2.419308 -0.374072 2.224103 1.656968 0.440965 2.284397 1.190865 1.146890 -22.353572 -18.588045 14.436566 -6.747111 -13.808514 -2.426496 20.828265 15.570465 13.993802 -59.973022 5.441810 -46.084237 -61.006104 -15.787790 -25.036835 5.294563 -0.189244 -6.975822 -2.388086 -4.188017 -2.825203 49.902908 -51.677475 21.085984 97.826929 7.740350 -53.365777 1.632463 -35.988110 29.919240 -0.994988 -30.878245 19.443851 0.000000 25.417219 0.000000 -0.460699 1.482977 -10.535031 0.000000 -0.096515 0.000000 -17.546919 -17.197259 -12.400321 0.000000 15.798422 0.000000 -8.321767 -1.047534 18.899329 0.000000 -2.432296 0.000000
-72.369275 90.124640 1.019357 9.755131 9.500069 -2.873666 3.118528 3.120394 -1.369567 2.619091 2.403038 -0.378043 2.202584 1.702128 0.512504 2.264404 1.313983 1.279635 -22.183434 -18.410739 14.326694 -6.934488 -12.846242 -1.980903 21.012048 15.704530 13.646095 -60.179349 5.466400 -45.676765 -60.873870 -15.932913 -25.122438 5.269306 -0.375184 -6.645412 -2.277675 -4.063449 -2.745698 49.955757 -51.350189 21.494312 98.371173 7.726387 -53.561194 1.583949 -35.168759 29.525814 -1.516113 -31.462301 19.915149 0.000000 26.439951 0.000000 -0.368650 1.008126 -10.566912 0.000000 -0.166962 0.000000 -17.632402 -17.629273 -12.188374 0.000000 16.557928 0.000000 -8.194651 -1.302315 19.022277 0.000000 -2.523662 0.000000
-72.261755 89.919214 0.908165 9.807479 9.528595 -3.152643 3.131635 3.027170 -1.403129 2.581429 2.602866 -0.385763 2.268379 1.802477 0.544562 2.357306 1.473720 1.435955 -22.092551 -18.210857 14.383677 -7.054733 -11.958371 -1.763934 21.003540 15.726636 13.402204 -60.417778 5.467404 -45.409826 -60.660743 -16.373927 -25.115039 4.999299 -0.414483 -6.202348 -2.352796 -3.972719 -2.510143 50.248090 -50.994582 21.580049 98.803404 7.643113 -53.804789 1.732349 -34.524625 29.359312 -2.086951 -32.075243 20.393016 0.000000 27.558533 0.000000 -0.292050 0.478685 -10.605953 0.000000 -0.166238 0.000000 -17.721185 -18.055021 -12.005829 0.000000 17.369988 0.000000 -8.132714 -1.616705 19.156527 0.000000 -2.589089 0.000000
-72.155750 89.691144 0.802151 9.822799 9.527109 -3.447167 3.152062 3.136607 -1.519988 2.625616 2.569076 -0.337696 2.233388 1.834466 0.718721 2.393149 1.634961 1.529920 -21.944067 -17.740413 14.302892 -7.162407 -11.115682 -1.591055 21.078224 15.719186 13.336591 -60.936271 5.418955 -45.488303 -60.381726 -16.518366 -24.848182 4.739255 -0.437720 -5.730159 -2.380203 -3.727435 -2.268912 50.747466 -50.496801 21.602272 99.282088 7.494196 -54.144380 1.791804 -34.062397 29.220589 -2.623136 -32.693586 20.885663 0.000000 28.744009 0.000000 -0.230374 -0.062056 -10.560637 0.000000 -0.223949 0.000000 -17.785254 -18.505253 -11.820836 0.000000 18.280227 0.000000 -8.062622 -2.002521 19.251586 0.000000 -2.585543 0.000000
-72.044598 89.444641 0.681439 9.885612 9.519349 -3.752030 3.138112 3.098075 -1.523141 2.586956 2.674479 -0.289558 2.312325 1.985293 0.822192 2.497704 1.837008 1.658992 -21.788818 -17.421496 14.103573 -7.283441 -10.234029 -1.399937 20.963465 15.712284 13.033516 -61.036131 5.206160 -45.224999 -60.197252 -16.578929 -25.104515 4.670676 -0.552130 -5.057957 -2.523526 -3.769703 -2.199459 50.924647 -50.062141 22.061951 99.720534 7.457132 -54.340921 1.710310 -33.561678 29.146410 -3.248500 -33.342038 21.431108 0.000000 29.983096 0.000000 -0.200355 -0.619090 -10.659999 0.000000 -0.208345 0.000000 -17.972260 -19.013272 -11.623282 0.000000 19.283393 0.000000 -7.884352 -2.357865 19.408169 0.000000 -2.700611 0.000000
